<?xml version="1.0" encoding="UTF-8" standalone="no"?>
<svg
   viewBox="0 0 128 128"
   width="400"
   height="400"
   version="1.1"
   xmlns="http://www.w3.org/2000/svg"
   xmlns:svg="http://www.w3.org/2000/svg">
  <defs
     id="defs196" />
  <path
     d="m 64,64 c 1.19195,0.770017 -1.166735,1.804789 -1.64,0.65 -1.82368,-2.535075 2.248956,-4.965719 4.21,-3.06 3.252049,2.403128 0.5909,7.829331 -3.22276,7.44 -4.809563,0.122578 -7.107968,-6.456754 -3.846674,-9.719158 3.440616,-4.309263 10.988059,-2.166101 12.179527,3.05949 C 73.56337,67.989078 68.000671,73.911397 62.29,72.96 55.770866,72.359599 51.902862,64.328929 55.120952,58.738754 c 2.946412,-6.242919 12.036076,-7.613568 16.937649,-2.911716 5.716117,4.741511 4.985777,14.559128 -1.088787,18.683433 -6.279366,4.914139 -16.40567,2.132126 -19.579742,-5.098334 -3.821373,-7.340447 0.532799,-17.152903 8.358358,-19.588739 8.137724,-3.059133 17.894531,2.452956 19.741951,10.88491 2.470486,8.686317 -3.837164,18.354359 -12.658614,19.926397 -9.141535,2.147354 -18.948983,-4.612804 -20.482101,-13.816768 -2.049934,-9.293395 4.52272,-19.215178 13.755228,-21.263126 9.421631,-2.515864 19.979492,3.443383 22.833162,12.739014 3.540429,9.737537 -1.998394,21.457064 -11.646005,25.114664 -9.932103,4.371863 -22.567779,-0.61778 -27.043447,-10.452955 -4.855262,-9.388388 -1.490891,-21.854568 7.214013,-27.760491 8.758308,-6.430172 21.881166,-5.206994 29.469036,2.51131 7.966279,7.62665 9.337638,20.879396 3.181042,30.011697 C 78.042591,87.54439 64.622236,91.685062 54.025681,87.160993 42.838401,82.923646 35.994155,70.096748 38.506033,58.431231 40.598291,46.362957 52.08311,36.92225 64.306006,37.042897 76.84308,36.636605 88.704676,46.134085 91.247852,58.381718 94.251608,70.410288 88.026689,83.836461 77.047344,89.515836 66.2368,95.564445 51.735422,93.426288 43.001938,84.678795 33.843231,76.02134 31.402558,61.350109 37.098509,50.134251 42.574172,38.538767 55.921711,31.444848 68.597343,33.299745 81.907964,34.794545 93.314016,45.816253 95.460359,59.009887 97.822772,71.232664 92.146915,84.394212 81.832484,91.300511 71.572152,98.409802 57.286526,98.815845 46.586338,92.413853 35.533166,86.051495 28.905292,73.023739 30.162712,60.343255 31.24531,46.566414 41.51941,34.104841 54.854027,30.458035 68.127729,26.354963 83.506845,31.286693 92.057415,42.204927 100.79323,52.775744 102.41771,68.477622 96.199251,80.678564 90.161017,93.162618 76.514766,101.37822 62.660178,100.95296 48.759886,100.82555 35.395523,92.12742 29.6584,79.462537 23.345168,66.520524 25.487411,50.055296 34.802375,39.092631 c 9.18186,-11.44598 25.283841,-16.64038 39.439385,-12.822103 13.334115,3.211208 24.370629,14.022156 28.1299,27.181979 3.81577,12.801574 0.61822,27.370229 -8.187105,37.414831 C 85.33187,101.29291 70.966336,106.61963 57.451299,104.51903 43.688954,102.62751 31.294721,93.216809 25.721676,80.494845 19.769604,67.572163 21.179428,51.676947 29.178546,39.926663 36.814235,28.361291 50.42503,21.015337 64.294514,21.075637 c 13.263035,-0.2641 26.349454,6.212691 34.449568,16.678075 8.744498,11.122837 11.562158,26.630338 7.142148,40.087762 -3.92648,13.036533 -14.375647,23.784276 -27.1514,28.398546 -12.389873,4.58016 -26.754671,3.26353 -38.129693,-3.45425 C 30.616105,96.979285 23.044756,87.22666 19.845586,76.123482 16.615399,65.013228 17.803449,52.736905 23.07222,42.434522 28.36218,32.009053 37.721981,23.781067 48.72421,19.826532 c 12.639248,-4.598893 27.246553,-3.42556 38.931919,3.267354 10.868586,5.972424 19.039341,16.470612 22.466781,28.367213 2.77534,9.775705 2.34096,20.379193 -1.15491,29.919983 -3.5424,9.374482 -9.974756,17.605023 -18.28465,23.223638 -8.563114,5.77709 -18.949903,8.69185 -29.269797,8.32886 C 51.125973,112.47914 41.043278,108.76516 32.936321,102.40666 24.798688,95.957109 18.778736,86.94468 15.922152,76.959731 13.087994,66.881025 13.520825,55.967699 17.098119,46.127712 20.726643,36.347858 27.396715,27.724173 36.039356,21.858911 44.8186,15.873149 55.498089,12.754992 66.123749,13.073453 c 10.70667,0.312947 21.260568,4.09362 29.745923,10.636903 8.554298,6.582616 14.933038,15.919358 17.963618,26.284001 3.124,10.537935 2.73305,22.03932 -0.9957,32.376598 -3.74094,10.310663 -10.7974,19.346745 -19.870318,25.513595 -9.153351,6.18254 -20.249123,9.38614 -31.293789,9.0434 -9.007828,-0.29861 -17.895255,-2.93988 -25.643537,-7.54591 C 27.794082,104.38391 20.88767,97.185063 16.379786,88.662076 11.441589,79.434323 9.323428,68.767125 10.291636,58.350597 c 0.842882,-9.146113 4.101741,-18.017455 9.256835,-25.616033 5.74625,-8.26368 13.740522,-15.00881 22.999025,-19.001544 9.609738,-4.3190195 20.473158,-5.6113413 30.862976,-3.978759 10.0811,1.66453 19.722201,6.118745 27.400228,12.876033 7.98464,6.870921 13.85401,16.105907 16.84478,26.197395 2.61494,8.867799 2.99986,18.397461 1.04806,27.443472 -1.67827,8.008658 -5.18106,15.650789 -10.12033,22.172075 -5.68978,7.567784 -13.328381,13.658064 -21.973136,17.506734 -8.678228,3.91532 -18.361028,5.5835 -27.84295,4.78967 -9.54765,-0.75566 -18.889136,-3.97915 -26.863509,-9.2732 C 23.859977,106.17551 17.188815,98.816758 12.727113,90.291444 7.7026288,80.745413 5.3773657,69.775569 6.2601861,59.015381 6.8353807,50.524159 9.4350313,42.183547 13.591037,34.768533 17.926144,27.13289 23.971705,20.481997 31.211167,15.506781 37.518177,11.077981 44.751689,8.0628762 52.256893,6.3517598 60.396527,4.701524 68.898752,4.5879223 77.018989,6.4060069 85.72271,8.2182252 93.931258,12.1204 100.96393,17.542006 c 6.07248,4.731764 11.13825,10.670008 15.06312,17.287863 3.66689,6.551285 6.14875,13.719861 7.3177,21.139521 l 0.0659,0.326162 L 123.45,56.49"
     stroke="#ffffff"
     fill="none" />
</svg>
